# AST/ASF file generated using VICON BodyLanguage
# -----------------------------------------------
:version 1.10
:name VICON
:units
  mass 1.0
  length 0.45
  angle deg
:documentation
   .ast/.asf automatically generated from VICON data using
   VICON BodyBuilder and BodyLanguage model FoxedUp or BRILLIANT.MOD
:root
   order TX TY TZ RX RY RZ
   axis XYZ
   position 0 0 0  
   orientation 0 0 0 
:bonedata
  begin
     id 1 
     name lhipjoint
     direction 0.597014 -0.743513 0.301268 
     length 2.48253 
     axis 0 0 0  XYZ
  end
  begin
     id 2 
     name lfemur
     direction 0.34202 -0.939693 0  
     length 7.51389  
     axis 0 0 20  XYZ
    dof rx ry rz
    limits (-160.0 20.0)
           (-70.0 70.0)
           (-60.0 70.0)
  end
  begin
     id 3 
     name ltibia
     direction 0.34202 -0.939693 0   
     length 7.54147   
     axis 0 0 20   XYZ
    dof rx
    limits (-10.0 170.0)
  end
  begin
     id 4 
     name lfoot
     direction 0.10378 -0.285133 0.952853   
     length 2.2132   
     axis -90 7.62852e-016 20   XYZ
    dof rx rz
    limits (-45.0 90.0)
           (-70.0 20.0)
  end
  begin
     id 5 
     name ltoes
     direction 1.5354e-011 -4.2171e-011 1   
     length 1.10362   
     axis -90 7.62852e-016 20   XYZ
    dof rx
    limits (-90.0 20.0)
  end
  begin
     id 6 
     name rhipjoint
     direction -0.591912 -0.747009 0.302685   
     length 2.47092  
     axis 0 0 0  XYZ 
  end
  begin
     id 7 
     name rfemur
     direction -0.34202 -0.939693 0   
     length 7.69991   
     axis 0 0 -20   XYZ
    dof rx ry rz
    limits (-160.0 20.0)
           (-70.0 70.0)
           (-70.0 60.0)
  end
  begin
     id 8 
     name rtibia
     direction -0.34202 -0.939693 0   
     length 7.40774   
     axis 0 0 -20   XYZ
    dof rx
    limits (-10.0 170.0)
 end
 begin
     id 9 
     name rfoot
     direction -0.0916245 -0.251736 0.963449   
     length 2.08235  
     axis -90 -7.62852e-016 -20   XYZ
    dof rx rz
    limits (-45.0 90.0)
           (-20.0 70.0)
  end
  begin
     id 10 
     name rtoes
     direction -1.53527e-011 -4.21878e-011 1   
     length 1.04369   
     axis -90 -7.62852e-016 -20   XYZ
    dof rx
    limits (-90.0 20.0)
  end
  begin
     id 11 
     name lowerback
     direction -0.0122523 0.991496 -0.12956   
     length 2.10814   
     axis 0 0 0   XYZ
    dof rx ry rz
    limits (-20.0 45.0)
           (-30.0 30.0)
           (-30.0 30.0)
  end
  begin
     id 12 
     name upperback
     direction 0.012378 0.999784 -0.0167122   
     length 2.11728   
     axis 0 0 0   XYZ
    dof rx ry rz
    limits (-20.0 45.0)
           (-30.0 30.0)
           (-30.0 30.0)
  end
  begin
     id 13 
     name thorax
     direction 0.0187236 0.998893 0.0431542   
     length 2.15267   
     axis 0 0 0   XYZ
    dof rx ry rz
    limits (-20.0 45.0)
           (-30.0 30.0)
           (-30.0 30.0)
  end
  begin
     id 14 
     name lowerneck
     direction 0.0165467 0.987304 0.157979   
     length 1.72129   
     axis 0 0 0   XYZ
    dof rx ry rz
    limits (-20.0 45.0)
           (-30.0 30.0)
           (-30.0 30.0)
  end
  begin
     id 15 
     name upperneck
     direction -0.0560236 0.986819 -0.151818   
     length 1.75382   
     axis 0 0 0   XYZ
    dof rx ry rz
    limits (-20.0 45.0)
           (-30.0 30.0)
           (-30.0 30.0)
  end
  begin
     id 16
     name head
     direction -0.0173602 0.99745 -0.0692312  
     length 1.76328  
     axis 0 0 0   XYZ
    dof rx ry rz
    limits (-20.0 45.0)
           (-30.0 30.0)
           (-30.0 30.0)
  end
  begin
     id 17 
     name lclavicle
     direction 0.957734 0.271724 -0.094399  
     length 3.5782  
     axis 0 0 0   XYZ
    dof ry rz
    limits (-20.0 10.0)
           (0.0 20.0)
  end
  begin
     id 18 
     name lhumerus
     direction 1 -4.48963e-011 1.21581e-027   
     length 5.25525   
     axis 180 -30 -90   XYZ
    dof rx ry rz
    limits (-60.0 90.0)
           (-90.0 90.0)
           (-90.0 90.0)
  end
  begin
     id 19
     name lradius
     direction 1 -4.48975e-011 3.71216e-028   
     length 3.35106   
     axis 180 -30 -90   XYZ
    dof rx
    limits (-10.0 170.0)
  end
  begin
     id 20
     name lwrist
     direction 1 -4.48957e-011 4.76535e-027   
     length 1.67553   
     axis -3.27501e-015 90 90   XYZ
    dof ry
    limits (-180.0 0.0)
 end
  begin
     id 21 
     name lhand
     direction 1 -4.49008e-011 9.52727e-027   
     length 0.574153   
     axis -6.08097e-015 90 90   XYZ
    dof rx rz
    limits (-90.0 90.0)
           (-45.0 45.0)
  end
  begin
     id 22 
     name lfingers
     direction 1 -4.48996e-011 1.90562e-026   
     length 0.462897   
     axis -1.21618e-014 90 90   XYZ
    dof rx
    limits (0.0 90.0)
  end
  begin
     id 23
     name lthumb
     direction 0.707107 -6.34908e-011 0.707107   
     length 0.66463   
     axis -90 45 -1.62303e-014   XYZ
    dof rx rz
    limits (-45.0 45.0)
           (-45.0 45.0)
  end
  begin
     id 24 
     name rclavicle
     direction -0.950439 0.29623 -0.0944132   
     length 3.45861  
     axis 0 0 0   XYZ 
    dof ry rz
    limits (-10.0 20.0)
           (-20.0 0.0)
  end
  begin
     id 25 
     name rhumerus
     direction -1 -4.48986e-011 1.25473e-027  
     length 5.33104   
     axis 180 30 90   XYZ
    dof rx ry rz
    limits (-90.0 60.0)
           (-90.0 90.0)
           (-90.0 90.0)
  end
  begin
     id 26 
     name rradius
     direction -1 -4.4894e-011 1.66273e-027   
     length 3.39883   
     axis 180 30 90   XYZ
    dof rx
    limits (-10.0 170.0)
  end
  begin
     id 27 
     name rwrist
     direction -1 -4.48946e-011 4.76572e-027   
     length 1.69941   
     axis -3.27501e-015 -90 -90   XYZ
    dof ry
    limits (-180.0 0.0)
  end
  begin
     id 28
     name rhand
     direction -1 -4.49028e-011 9.52595e-027   
     length 0.913886   
     axis -6.08097e-015 -90 -90   XYZ
    dof rx rz
    limits (-90.0 90.0)
           (-45.0 45.0)
  end
  begin
     id 29
     name rfingers
     direction -1 -4.48945e-011 1.9063e-026   
     length 0.736798   
     axis -1.21618e-014 -90 -90   XYZ
    dof rx
    limits (0.0 90.0)
  end
  begin
     id 30
     name rthumb
     direction -0.707107 -6.34966e-011 0.707107   
     length 1.0579   
     axis -90 -45 1.62303e-014   XYZ
    dof rx rz
    limits (-45.0 45.0)
           (-45.0 45.0)
  end
:hierarchy
  begin
    root lhipjoint rhipjoint lowerback
    lhipjoint lfemur
    lfemur ltibia
    ltibia lfoot
    lfoot ltoes
    rhipjoint rfemur
    rfemur rtibia
    rtibia rfoot
    rfoot rtoes
    lowerback upperback
    upperback thorax
    thorax lowerneck lclavicle rclavicle
    lowerneck upperneck
    upperneck head
    lclavicle lhumerus
    lhumerus lradius
    lradius lwrist
    lwrist lhand lthumb
    lhand lfingers
    rclavicle rhumerus
    rhumerus rradius
    rradius rwrist
    rwrist rhand rthumb
    rhand rfingers
  end

#!OML:ASF F:\VICON\USERDATA\INSTALL\rory3\rory3.ASF
:FULLY-SPECIFIED
:DEGREES
1184
root -3.20762 16.9718 37.8093 171.652 29.0209 -183.093
lowerback 11.3549 -3.34571 -2.34236
upperback 2.45469 -4.29459 3.71446
thorax -3.31334 -2.00164 5.79615
lowerneck -13.2572 8.27913 6.57016
upperneck 16.2193 11.646 -7.48229
head 8.02998 5.37052 -2.20083
rclavicle 6.65929e-015 9.54166e-015
rhumerus -21.5398 17.3975 -82.9584
rradius 120.221
rwrist -26.6976
rhand -17.8759 2.62829
rfingers 7.12502
rthumb 8.39006 -27.1851
lclavicle 6.65929e-015 9.54166e-015
lhumerus -19.835 -36.5767 104.966
lradius 110.17
lwrist -13.1263
lhand -34.0684 390.383
lfingers 7.12502
lthumb -7.24562 420.239
rfemur -18.5231 5.79616 14.979
rtibia 45.4984
rfoot -15.7372 12.118
rtoes 3.81801
lfemur 6.68337 3.82378 -19.5429
ltibia 44.3578
lfoot -18.5478 12.941
ltoes -28.4054
1185
root -3.08864 16.9788 37.7468 171.546 29.1691 -183.19
lowerback 10.8645 -3.52533 -1.88363
upperback 2.56977 -4.51199 3.29287
thorax -2.9715 -2.12877 5.07588
lowerneck -13.2901 8.45573 6.9291
upperneck 16.1986 11.7842 -7.40047
head 8.056 5.45886 -2.21106
rclavicle -5.13858e-014 -2.06736e-014
rhumerus -21.2437 15.9541 -82.4347
rradius 121.348
rwrist -25.1523
rhand -15.8921 3.09439
rfingers 7.12502
rthumb 10.3042 -26.6332
lclavicle -5.13858e-014 -2.06736e-014
lhumerus -18.2903 -36.5617 103.015
lradius 111.063
lwrist -8.38862
lhand -31.9642 387.581
lfingers 7.12502
lthumb -5.21412 417.497
rfemur -18.1274 6.15156 15.3079
rtibia 45.6367
rfoot -15.9531 12.0008
rtoes 4.55606
lfemur 6.47138 4.29776 -18.9558
ltibia 45.3543
lfoot -17.139 12.2311
ltoes -29.6402
1186
root -2.97937 16.9865 37.6791 171.327 29.4178 -183.391
lowerback 10.3978 -3.64022 -1.43823
upperback 2.76061 -4.64108 2.88353
thorax -2.57583 -2.2079 4.36736
lowerneck -13.5767 8.62706 7.13764
upperneck 16.3246 11.9344 -7.27183
head 8.1646 5.53922 -2.16879
rclavicle -1.43224e-013 3.18055e-015
rhumerus -20.3692 14.646 -81.8827
rradius 122.382
rwrist -23.3247
rhand -14.5811 3.60041
rfingers 7.12502
rthumb 11.5687 -26.0603
lclavicle -1.43224e-013 3.18055e-015
lhumerus -16.3534 -37.0163 100.854
lradius 111.712
lwrist -3.61791
lhand -29.1783 386.068
lfingers 7.12502
lthumb -2.52395 416.033
rfemur -17.6397 6.47601 15.4826
rtibia 45.7462
rfoot -16.2383 11.9249
rtoes 4.76187
lfemur 6.33379 4.63908 -18.6273
ltibia 46.2971
lfoot -15.7879 11.7276
ltoes -31.543
1187
root -2.87546 16.9909 37.618 171.096 29.4699 -183.681
lowerback 10.0378 -3.80496 -1.2479
upperback 2.7196 -4.86861 2.58157
thorax -2.44555 -2.3304 3.9462
lowerneck -13.2049 8.77537 7.45721
upperneck 16.3054 12.1283 -7.39282
head 8.13584 5.65202 -2.24657
rclavicle 8.31914e-014 -6.36111e-015
rhumerus -19.3912 13.8885 -81.3011
rradius 123.241
rwrist -21.7969
rhand -13.079 3.68844
rfingers 7.12502
rthumb 13.017 -25.8854
lclavicle 8.31914e-014 -6.36111e-015
lhumerus -14.8086 -37.6126 99.1055
lradius 111.925
lwrist 0.582782
lhand -28.5087 386.073
lfingers 7.12502
lthumb -1.87722 416.045
rfemur -17.1618 6.60353 15.519
rtibia 45.8401
rfoot -16.6796 11.8242
rtoes 4.92954
lfemur 6.12349 4.81137 -18.4153
ltibia 47.2522
lfoot -14.586 10.9423
ltoes -30.452
1188
root -2.78028 17.0015 37.5568 171.042 29.2363 -183.734
lowerback 9.74575 -4.08351 -0.872785
upperback 2.51914 -5.22439 2.42054
thorax -2.5167 -2.5128 3.59581
lowerneck -12.5605 8.92523 7.59571
upperneck 16.2679 12.3922 -7.51258
head 8.04729 5.80037 -2.29849
rclavicle 6.08281e-014 -2.22639e-014
rhumerus -18.3797 13.5053 -80.4866
rradius 123.972
rwrist -20.9347
rhand -10.1743 3.20813
rfingers 7.12502
rthumb 15.8158 -26.1658
lclavicle 6.08281e-014 -2.22639e-014
lhumerus -13.6267 -38.6381 97.8245
lradius 111.981
lwrist 4.71941
lhand -25.884 383.115
lfingers 7.12502
lthumb 0.657759 413.094
rfemur -16.6731 6.42156 15.6586
rtibia 45.8892
rfoot -16.9601 12.0011
rtoes 6.26579
lfemur 5.80613 4.6141 -18.1319
ltibia 48.1656
lfoot -13.2112 10.4438
ltoes -30.2594
